<?xml version="1.0" encoding="iso-8859-1"?>
<!-- Uploaded to: SVG Repo, www.svgrepo.com, Generator: SVG Repo Mixer Tools -->
<!DOCTYPE svg PUBLIC "-//W3C//DTD SVG 1.1//EN" "http://www.w3.org/Graphics/SVG/1.1/DTD/svg11.dtd">
<svg fill="#000000" version="1.1" id="Capa_1" xmlns="http://www.w3.org/2000/svg" xmlns:xlink="http://www.w3.org/1999/xlink" 
	 width="800px" height="800px" viewBox="0 0 343.258 343.258"
	 xml:space="preserve">
<g>
	<g>
		<path d="M328.215,59.855L283.3,14.942c-9.434-9.439-22.698-14.855-36.401-14.855c-13.697,0-26.955,5.416-36.396,14.85
			l-70.28,70.283c-3.666,3.663-6.212,7.98-7.854,12.562c-5.558,2.519-10.698,5.999-15.156,10.445L15.051,210.398
			c-20.065,20.062-20.071,52.71,0,72.784l44.916,44.91c9.716,9.728,22.642,15.078,36.396,15.078
			c13.757,0,26.682-5.351,36.395-15.066l70.283-70.286c3.669-3.669,6.215-7.98,7.849-12.556c5.566-2.522,10.712-6.005,15.162-10.455
			l102.165-102.162C348.272,112.581,348.272,79.93,328.215,59.855z M183.314,238.099l-70.283,70.286
			c-4.456,4.456-10.379,6.905-16.675,6.905c-6.296,0-12.216-2.449-16.675-6.905l-44.919-44.922c-9.19-9.199-9.184-24.157,0-33.345
			l102.172-102.171c9.199-9.193,24.166-9.181,33.345,0l31.519,31.519c2.408,2.405,2.408,6.29,0,8.695
			c-2.401,2.404-6.286,2.404-8.688,0l-31.525-31.52c-4.396-4.398-11.553-4.404-15.955,0L43.462,238.813
			c-4.396,4.401-4.396,11.559,0,15.955l44.919,44.922c4.26,4.257,11.694,4.257,15.964,0l70.28-70.287
			c2.404-2.407,6.293-2.407,8.694,0C185.728,231.812,185.722,235.69,183.314,238.099z M201.743,119.973l45.168-45.159l21.426,21.437
			l-45.324,45.321c-0.517-0.6-0.919-1.258-1.489-1.825L201.743,119.973z M121.744,203.283l19.783,19.773l-45.165,45.168
			l-21.428-21.431l45.324-45.33C120.774,202.052,121.179,202.719,121.744,203.283z M308.496,112.92L206.331,215.082
			c-4.6,4.6-10.629,6.894-16.67,6.894c-6.034,0-12.084-2.294-16.678-6.894l-31.52-31.519c-2.401-2.408-2.401-6.287,0-8.695
			c2.405-2.408,6.293-2.408,8.695,0l31.522,31.52c4.396,4.396,11.553,4.396,15.954,0l102.166-102.163
			c4.396-4.396,4.396-11.553,0-15.958l-44.922-44.916c-4.264-4.263-11.691-4.263-15.961,0l-70.28,70.28
			c-2.405,2.405-6.293,2.405-8.695,0c-2.405-2.405-2.405-6.29,0-8.695l70.28-70.28c8.911-8.911,24.446-8.905,33.351,0l44.922,44.916
			C317.683,88.771,317.683,103.732,308.496,112.92z"/>
	</g>
</g>
</svg>